
<svg width="104" height="104" viewBox="0 0 104 104" fill="none" xmlns="http://www.w3.org/2000/svg">
<rect x="4" y="4" width="96" height="96" rx="48" fill="#DCFCE7"/>
<g filter="url(#filter0_d_1_34)">
<rect x="4" y="4" width="96" height="96" rx="48" fill="white" fill-opacity="0.01" shape-rendering="crispEdges"/>
</g>
<path d="M48.5 63.5L66.125 45.875L62.625 42.375L48.5 56.5L41.375 49.375L37.875 52.875L48.5 63.5ZM52 77C48.5417 77 45.2917 76.3438 42.25 75.0312C39.2083 73.7188 36.5625 71.9375 34.3125 69.6875C32.0625 67.4375 30.2812 64.7917 28.9688 61.75C27.6562 58.7083 27 55.4583 27 52C27 48.5417 27.6562 45.2917 28.9688 42.25C30.2812 39.2083 32.0625 36.5625 34.3125 34.3125C36.5625 32.0625 39.2083 30.2812 42.25 28.9688C45.2917 27.6562 48.5417 27 52 27C55.4583 27 58.7083 27.6562 61.75 28.9688C64.7917 30.2812 67.4375 32.0625 69.6875 34.3125C71.9375 36.5625 73.7188 39.2083 75.0312 42.25C76.3438 45.2917 77 48.5417 77 52C77 55.4583 76.3438 58.7083 75.0312 61.75C73.7188 64.7917 71.9375 67.4375 69.6875 69.6875C67.4375 71.9375 64.7917 73.7188 61.75 75.0312C58.7083 76.3438 55.4583 77 52 77ZM52 72C57.5833 72 62.3125 70.0625 66.1875 66.1875C70.0625 62.3125 72 57.5833 72 52C72 46.4167 70.0625 41.6875 66.1875 37.8125C62.3125 33.9375 57.5833 32 52 32C46.4167 32 41.6875 33.9375 37.8125 37.8125C33.9375 41.6875 32 46.4167 32 52C32 57.5833 33.9375 62.3125 37.8125 66.1875C41.6875 70.0625 46.4167 72 52 72Z" fill="#059669"/>
<defs>
<filter id="filter0_d_1_34" x="0" y="0" width="104" height="104" filterUnits="userSpaceOnUse" color-interpolation-filters="sRGB">
<feFlood flood-opacity="0" result="BackgroundImageFix"/>
<feColorMatrix in="SourceAlpha" type="matrix" values="0 0 0 0 0 0 0 0 0 0 0 0 0 0 0 0 0 0 127 0" result="hardAlpha"/>
<feMorphology radius="4" operator="dilate" in="SourceAlpha" result="effect1_dropShadow_1_34"/>
<feOffset/>
<feComposite in2="hardAlpha" operator="out"/>
<feColorMatrix type="matrix" values="0 0 0 0 0.941176 0 0 0 0 0.992157 0 0 0 0 0.956863 0 0 0 1 0"/>
<feBlend mode="normal" in2="BackgroundImageFix" result="effect1_dropShadow_1_34"/>
<feBlend mode="normal" in="SourceGraphic" in2="effect1_dropShadow_1_34" result="shape"/>
</filter>
</defs>
</svg>