
<svg width="192" height="192" viewBox="0 0 192 192" fill="none" xmlns="http://www.w3.org/2000/svg">
<g opacity="0.7" filter="url(#filter0_f_4_73)">
<rect x="24" y="24" width="144" height="144" rx="72" fill="#FFEDD5"/>
</g>
<rect x="42" y="42" width="108" height="108" rx="54" fill="#FFF7ED"/>
<rect x="42" y="42" width="108" height="108" rx="54" stroke="white" stroke-width="4"/>
<g filter="url(#filter1_dd_4_73)">
<rect x="40" y="40" width="112" height="112" rx="56" fill="white" fill-opacity="0.01" shape-rendering="crispEdges"/>
</g>
<path d="M105.333 93.3334C106.444 93.3334 107.389 92.9445 108.167 92.1667C108.944 91.3889 109.333 90.4445 109.333 89.3334C109.333 88.2223 108.944 87.2778 108.167 86.5C107.389 85.7223 106.444 85.3334 105.333 85.3334C104.222 85.3334 103.278 85.7223 102.5 86.5C101.722 87.2778 101.333 88.2223 101.333 89.3334C101.333 90.4445 101.722 91.3889 102.5 92.1667C103.278 92.9445 104.222 93.3334 105.333 93.3334V93.3334M86.6666 93.3334C87.7778 93.3334 88.7222 92.9445 89.5 92.1667C90.2778 91.3889 90.6666 90.4445 90.6666 89.3334C90.6666 88.2223 90.2778 87.2778 89.5 86.5C88.7222 85.7223 87.7778 85.3334 86.6666 85.3334C85.5555 85.3334 84.6111 85.7223 83.8333 86.5C83.0555 87.2778 82.6666 88.2223 82.6666 89.3334C82.6666 90.4445 83.0555 91.3889 83.8333 92.1667C84.6111 92.9445 85.5555 93.3334 86.6666 93.3334V93.3334M96 100C92.9778 100 90.2333 100.856 87.7666 102.567C85.3 104.278 83.5111 106.533 82.4 109.333H86.8C87.7778 107.689 89.0778 106.389 90.7 105.433C92.3222 104.478 94.0889 104 96 104C97.9111 104 99.6778 104.478 101.3 105.433C102.922 106.389 104.222 107.689 105.2 109.333H109.6C108.489 106.533 106.7 104.278 104.233 102.567C101.767 100.856 99.0222 100 96 100V100M96 122.667C92.3111 122.667 88.8444 121.967 85.6 120.567C82.3555 119.167 79.5333 117.267 77.1333 114.867C74.7333 112.467 72.8333 109.644 71.4333 106.4C70.0333 103.156 69.3333 99.6889 69.3333 96C69.3333 92.3112 70.0333 88.8445 71.4333 85.6C72.8333 82.3556 74.7333 79.5334 77.1333 77.1334C79.5333 74.7334 82.3555 72.8334 85.6 71.4334C88.8444 70.0334 92.3111 69.3334 96 69.3334C99.6889 69.3334 103.156 70.0334 106.4 71.4334C109.644 72.8334 112.467 74.7334 114.867 77.1334C117.267 79.5334 119.167 82.3556 120.567 85.6C121.967 88.8445 122.667 92.3112 122.667 96C122.667 99.6889 121.967 103.156 120.567 106.4C119.167 109.644 117.267 112.467 114.867 114.867C112.467 117.267 109.644 119.167 106.4 120.567C103.156 121.967 99.6889 122.667 96 122.667V122.667M96 96V96V96V96V96V96V96V96V96V96M96 117.333C101.956 117.333 107 115.267 111.133 111.133C115.267 107 117.333 101.956 117.333 96C117.333 90.0445 115.267 85 111.133 80.8667C107 76.7334 101.956 74.6667 96 74.6667C90.0444 74.6667 85 76.7334 80.8666 80.8667C76.7333 85 74.6666 90.0445 74.6666 96C74.6666 101.956 76.7333 107 80.8666 111.133C85 115.267 90.0444 117.333 96 117.333V117.333" fill="#F97316"/>
<rect x="123" y="123" width="37" height="37" rx="18.5" fill="white"/>
<g filter="url(#filter2_dd_4_73)">
<rect x="123" y="123" width="37" height="37" rx="18.5" fill="white" fill-opacity="0.01" shape-rendering="crispEdges"/>
</g>
<path d="M141.5 147.75C141.854 147.75 142.151 147.63 142.391 147.391C142.63 147.151 142.75 146.854 142.75 146.5C142.75 146.146 142.63 145.849 142.391 145.609C142.151 145.37 141.854 145.25 141.5 145.25C141.146 145.25 140.849 145.37 140.609 145.609C140.37 145.849 140.25 146.146 140.25 146.5C140.25 146.854 140.37 147.151 140.609 147.391C140.849 147.63 141.146 147.75 141.5 147.75V147.75M140.25 142.75H142.75V135.25H140.25V142.75V142.75M141.5 154C139.771 154 138.146 153.672 136.625 153.016C135.104 152.359 133.781 151.469 132.656 150.344C131.531 149.219 130.641 147.896 129.984 146.375C129.328 144.854 129 143.229 129 141.5C129 139.771 129.328 138.146 129.984 136.625C130.641 135.104 131.531 133.781 132.656 132.656C133.781 131.531 135.104 130.641 136.625 129.984C138.146 129.328 139.771 129 141.5 129C143.229 129 144.854 129.328 146.375 129.984C147.896 130.641 149.219 131.531 150.344 132.656C151.469 133.781 152.359 135.104 153.016 136.625C153.672 138.146 154 139.771 154 141.5C154 143.229 153.672 144.854 153.016 146.375C152.359 147.896 151.469 149.219 150.344 150.344C149.219 151.469 147.896 152.359 146.375 153.016C144.854 153.672 143.229 154 141.5 154V154M141.5 151.5C144.292 151.5 146.656 150.531 148.594 148.594C150.531 146.656 151.5 144.292 151.5 141.5C151.5 138.708 150.531 136.344 148.594 134.406C146.656 132.469 144.292 131.5 141.5 131.5C138.708 131.5 136.344 132.469 134.406 134.406C132.469 136.344 131.5 138.708 131.5 141.5C131.5 144.292 132.469 146.656 134.406 148.594C136.344 150.531 138.708 151.5 141.5 151.5V151.5M141.5 141.5V141.5V141.5V141.5V141.5V141.5V141.5V141.5V141.5V141.5" fill="#EF4444"/>
<defs>
<filter id="filter0_f_4_73" x="0" y="0" width="192" height="192" filterUnits="userSpaceOnUse" color-interpolation-filters="sRGB">
<feFlood flood-opacity="0" result="BackgroundImageFix"/>
<feBlend mode="normal" in="SourceGraphic" in2="BackgroundImageFix" result="shape"/>
<feGaussianBlur stdDeviation="12" result="effect1_foregroundBlur_4_73"/>
</filter>
<filter id="filter1_dd_4_73" x="28" y="38" width="136" height="136" filterUnits="userSpaceOnUse" color-interpolation-filters="sRGB">
<feFlood flood-opacity="0" result="BackgroundImageFix"/>
<feColorMatrix in="SourceAlpha" type="matrix" values="0 0 0 0 0 0 0 0 0 0 0 0 0 0 0 0 0 0 127 0" result="hardAlpha"/>
<feMorphology radius="4" operator="erode" in="SourceAlpha" result="effect1_dropShadow_4_73"/>
<feOffset dy="4"/>
<feGaussianBlur stdDeviation="3"/>
<feComposite in2="hardAlpha" operator="out"/>
<feColorMatrix type="matrix" values="0 0 0 0 0 0 0 0 0 0 0 0 0 0 0 0 0 0 0.1 0"/>
<feBlend mode="normal" in2="BackgroundImageFix" result="effect1_dropShadow_4_73"/>
<feColorMatrix in="SourceAlpha" type="matrix" values="0 0 0 0 0 0 0 0 0 0 0 0 0 0 0 0 0 0 127 0" result="hardAlpha"/>
<feMorphology radius="3" operator="erode" in="SourceAlpha" result="effect2_dropShadow_4_73"/>
<feOffset dy="10"/>
<feGaussianBlur stdDeviation="7.5"/>
<feComposite in2="hardAlpha" operator="out"/>
<feColorMatrix type="matrix" values="0 0 0 0 0 0 0 0 0 0 0 0 0 0 0 0 0 0 0.1 0"/>
<feBlend mode="normal" in2="effect1_dropShadow_4_73" result="effect2_dropShadow_4_73"/>
<feBlend mode="normal" in="SourceGraphic" in2="effect2_dropShadow_4_73" result="shape"/>
</filter>
<filter id="filter2_dd_4_73" x="118" y="122" width="47" height="47" filterUnits="userSpaceOnUse" color-interpolation-filters="sRGB">
<feFlood flood-opacity="0" result="BackgroundImageFix"/>
<feColorMatrix in="SourceAlpha" type="matrix" values="0 0 0 0 0 0 0 0 0 0 0 0 0 0 0 0 0 0 127 0" result="hardAlpha"/>
<feMorphology radius="2" operator="erode" in="SourceAlpha" result="effect1_dropShadow_4_73"/>
<feOffset dy="2"/>
<feGaussianBlur stdDeviation="2"/>
<feComposite in2="hardAlpha" operator="out"/>
<feColorMatrix type="matrix" values="0 0 0 0 0 0 0 0 0 0 0 0 0 0 0 0 0 0 0.1 0"/>
<feBlend mode="normal" in2="BackgroundImageFix" result="effect1_dropShadow_4_73"/>
<feColorMatrix in="SourceAlpha" type="matrix" values="0 0 0 0 0 0 0 0 0 0 0 0 0 0 0 0 0 0 127 0" result="hardAlpha"/>
<feMorphology radius="1" operator="erode" in="SourceAlpha" result="effect2_dropShadow_4_73"/>
<feOffset dy="4"/>
<feGaussianBlur stdDeviation="3"/>
<feComposite in2="hardAlpha" operator="out"/>
<feColorMatrix type="matrix" values="0 0 0 0 0 0 0 0 0 0 0 0 0 0 0 0 0 0 0.1 0"/>
<feBlend mode="normal" in2="effect1_dropShadow_4_73" result="effect2_dropShadow_4_73"/>
<feBlend mode="normal" in="SourceGraphic" in2="effect2_dropShadow_4_73" result="shape"/>
</filter>
</defs>
</svg>